# xmcd CD database file
#
# Track frame offsets:
#	150
#	15459
#	29322
#	43655
#	58821
#	68682
#	86643
#	96379
#	113561
#	137305
#	148991
#	165346
#
# Disc length: 2294 seconds
#
# Revision: 0
# Processed by: cddbd v1.5.1PL2 Copyright (c) Steve Scherf et al.
# Submitted via: CDex 1.51
#
DISCID=9a08f40c
DTITLE=Col Elliott - CozI'manozzy
DYEAR=2005
DGENRE=Country
TTITLE0=Here's To Arthur Phillip
TTITLE1=Boots
TTITLE2=How Tough Was He
TTITLE3=I'll Bet You A Kangaroo
TTITLE4=The Older I Get The Better I Was
TTITLE5=All Gave Some Some Gave All
TTITLE6=The Dreamatologist
TTITLE7=On Your Bike
TTITLE8=Cowboy Ride
TTITLE9=Billy
TTITLE10=Dedicated Drinker
TTITLE11=I'm Busy
EXTD=YEAR: 2005
EXTT0=
EXTT1=
EXTT2=
EXTT3=
EXTT4=
EXTT5=
EXTT6=
EXTT7=
EXTT8=
EXTT9=
EXTT10=
EXTT11=
PLAYORDER=
